<?xml version="1.0" standalone="no"?>
<!DOCTYPE svg PUBLIC "-//W3C//DTD SVG 20010904//EN"
 "http://www.w3.org/TR/2001/REC-SVG-20010904/DTD/svg10.dtd">
<svg version="1.0" xmlns="http://www.w3.org/2000/svg"
 width="136.000000pt" height="100.000000pt" viewBox="0 0 136.000000 100.000000"
 preserveAspectRatio="xMidYMid meet">

<g transform="translate(0.000000,100.000000) scale(0.100000,-0.100000)"
fill="#000000" stroke="none">
<path d="M686 725 c-4 -15 0 -37 8 -54 14 -27 14 -29 -13 -56 -16 -15 -31 -39
-34 -53 -4 -24 1 -20 43 27 l49 53 -20 52 c-25 63 -25 63 -33 31z"/>
<path d="M1065 342 c-39 -24 -54 -43 -65 -83 -13 -45 3 -98 40 -134 27 -26 39
-30 90 -30 51 0 63 4 90 30 37 36 53 89 40 134 -24 86 -122 127 -195 83z m82
-42 c6 -16 18 -30 27 -30 9 0 16 -7 16 -15 0 -8 -4 -15 -10 -15 -6 0 -10 -26
-10 -59 0 -59 -11 -83 -27 -59 -4 7 -17 18 -28 24 -13 7 -21 24 -23 45 -2 19
-8 38 -13 44 -20 20 -9 35 27 35 l35 0 -21 30 c-20 28 -20 30 -3 30 11 0 23
-12 30 -30z"/>
<path d="M1114 226 c-8 -22 3 -49 19 -43 6 2 12 14 12 27 0 27 -22 39 -31 16z"/>
<path d="M578 289 c-18 -10 -25 -39 -9 -39 5 0 14 7 22 16 8 9 21 13 35 10 26
-7 42 9 18 18 -22 9 -46 7 -66 -5z"/>
<path d="M87 273 c-11 -10 -8 -103 3 -103 6 0 10 7 10 15 0 8 7 15 15 15 11 0
15 11 15 40 0 32 -4 40 -18 40 -10 0 -22 -3 -25 -7z m33 -33 c0 -11 -4 -20
-10 -20 -5 0 -10 9 -10 20 0 11 5 20 10 20 6 0 10 -9 10 -20z"/>
<path d="M150 270 c0 -5 7 -10 15 -10 8 0 15 -4 15 -10 0 -5 -9 -10 -21 -10
-17 0 -20 -5 -17 -32 2 -28 7 -33 28 -33 23 0 25 4 28 53 3 50 2 52 -22 52
-15 0 -26 -4 -26 -10z m30 -65 c0 -8 -4 -15 -10 -15 -5 0 -10 7 -10 15 0 8 5
15 10 15 6 0 10 -7 10 -15z"/>
<path d="M210 245 c0 -24 5 -35 15 -35 8 0 15 -4 15 -10 0 -5 -4 -10 -10 -10
-5 0 -10 -4 -10 -10 0 -5 9 -10 20 -10 18 0 20 7 20 55 0 57 -16 76 -23 28
l-4 -28 -2 28 c-2 40 -21 33 -21 -8z"/>
<path d="M620 230 c0 -5 9 -10 21 -10 14 0 19 -5 16 -15 -4 -8 -2 -17 2 -20 9
-5 21 17 21 41 0 9 -11 14 -30 14 -16 0 -30 -4 -30 -10z"/>
</g>
</svg>
