<?xml version="1.0" standalone="no"?>
<!DOCTYPE svg PUBLIC "-//W3C//DTD SVG 20010904//EN"
 "http://www.w3.org/TR/2001/REC-SVG-20010904/DTD/svg10.dtd">
<svg version="1.0" xmlns="http://www.w3.org/2000/svg"
 width="70.000000pt" height="70.000000pt" viewBox="0 0 70.000000 70.000000"
 preserveAspectRatio="xMidYMid meet">

<g transform="translate(0.000000,70.000000) scale(0.100000,-0.100000)"
fill="#000000" stroke="none">
<path d="M61 395 c-31 -124 -37 -115 77 -115 l97 0 18 78 c9 42 20 87 23 100
4 15 2 22 -7 22 -9 0 -21 -29 -34 -83 l-20 -82 -72 -3 c-40 -2 -73 1 -73 5 0
4 9 42 20 83 11 41 20 76 20 78 0 1 -6 2 -14 2 -9 0 -21 -30 -35 -85z"/>
<path d="M310 460 c0 -18 7 -20 81 -20 78 0 80 -1 77 -22 -3 -22 -8 -23 -89
-26 l-87 -3 -11 -44 c-14 -57 -14 -65 3 -65 8 0 16 16 20 40 l6 40 85 0 c95 0
95 0 110 84 l7 36 -101 0 c-94 0 -101 -1 -101 -20z"/>
<path d="M525 403 c-9 -43 -19 -88 -22 -100 -4 -16 -1 -23 9 -23 11 0 20 24
32 78 9 43 19 88 23 100 4 16 1 22 -10 22 -11 0 -20 -22 -32 -77z"/>
<path d="M628 443 c-2 -10 1 -30 6 -45 8 -23 6 -31 -12 -51 -34 -36 -27 -55 8
-22 39 37 43 54 25 98 -17 41 -22 45 -27 20z"/>
</g>
</svg>
