<?xml version="1.0" standalone="no"?>
<!DOCTYPE svg PUBLIC "-//W3C//DTD SVG 20010904//EN"
 "http://www.w3.org/TR/2001/REC-SVG-20010904/DTD/svg10.dtd">
<svg version="1.0" xmlns="http://www.w3.org/2000/svg"
 width="70.000000pt" height="70.000000pt" viewBox="0 0 70.000000 70.000000"
 preserveAspectRatio="xMidYMid meet">

<g transform="translate(0.000000,70.000000) scale(0.100000,-0.100000)"
fill="#000000" stroke="none">
<path d="M473 300 c-51 -26 -69 -52 -80 -116 -17 -94 22 -155 113 -175 48 -11
56 -10 101 12 38 19 53 34 72 73 23 47 24 51 10 104 -26 102 -124 148 -216
102z m159 -98 l27 -25 -61 -74 c-33 -41 -64 -71 -68 -66 -10 10 -80 195 -80
209 0 21 152 -16 182 -44z"/>
<path d="M520 204 c29 -25 33 -26 48 -11 20 21 17 23 -37 31 l-43 7 32 -27z"/>
<path d="M480 207 c0 -2 10 -29 23 -60 25 -60 37 -64 37 -12 0 23 -8 37 -30
53 -16 13 -30 21 -30 19z"/>
<path d="M595 190 c-3 -5 3 -10 15 -10 12 0 18 5 15 10 -3 6 -10 10 -15 10 -5
0 -12 -4 -15 -10z"/>
<path d="M555 124 c-3 -20 -4 -38 -2 -40 3 -3 19 13 37 36 l32 40 -30 0 c-26
0 -31 -4 -37 -36z"/>
</g>
</svg>
