<svg data-v-67fe8f9c="" xmlns="http://www.w3.org/2000/svg" width="48" height="48" fill="none" viewBox="0 0 46 44" class="">
          <circle cx="27" cy="24" r="18" fill="#FFF4F4"></circle>
          <path fill="#FFCDCB" fill-rule="evenodd" d="M10.512 5.2h26.975a4.8 4.8 0 0 1 4.796 4.6l.51 12.2h3.203L45.48 9.666A8 8 0 0 0 37.489 2H10.511A8 8 0 0 0 2.52 9.666l-1.17 28A8 8 0 0 0 9.34 46h29.317a8 8 0 0 0 7.993-8.334L46.331 30h-3.203l.326 7.8a4.8 4.8 0 0 1-4.796 5H9.341a4.8 4.8 0 0 1-4.795-5l1.17-28a4.8 4.8 0 0 1 4.796-4.6Z" clip-rule="evenodd"></path>
          <path fill="#FFCDCB" fill-rule="evenodd" d="M13.92 16.64c.466 5.158 4.8 9.2 10.08 9.2 5.279 0 9.614-4.042 10.078-9.2h-3.522a6.621 6.621 0 0 1-13.113 0h-3.522Z" clip-rule="evenodd"></path>
          <path fill="#FFCDCB" d="M34.092 16.65a1.75 1.75 0 0 1-1.75 1.75c-.967 0-1.795-.784-1.795-1.75 0-.967.828-1.75 1.795-1.75.966 0 1.75.783 1.75 1.75ZM17.449 16.648c0 .966-.766 1.75-1.733 1.75-.966 0-1.795-.784-1.795-1.75 0-.967.829-1.75 1.795-1.75.967 0 1.733.783 1.733 1.75ZM46 22a1.6 1.6 0 1 1-3.2 0 1.6 1.6 0 0 1 3.2 0ZM46.33 30.044a1.6 1.6 0 1 1-3.2 0 1.6 1.6 0 0 1 3.2 0Z"></path></svg>