<?xml version="1.0" encoding="UTF-8"?>
<svg width="72px" height="30px" viewBox="0 0 72 30" version="1.1" xmlns="http://www.w3.org/2000/svg" xmlns:xlink="http://www.w3.org/1999/xlink">
    <!-- Generator: Sketch 58 (84663) - https://sketch.com -->
    <title>Logo</title>
    <desc>Created with Sketch.</desc>
    <g id="Symbols" stroke="none" stroke-width="1" fill="none" fill-rule="evenodd">
        <g id="Logo" transform="translate(-10.000000, -10.000000)" fill="#000000">
            <g transform="translate(10.000000, 10.000000)">
                <path d="M0.102393162,18.7747449 L0.102393162,17.3002551 L3.99384615,17.3002551 L3.99384615,19.0162415 C3.99384615,20.5868197 4.60068376,21.372534 5.81350427,21.372534 L5.82888889,21.372534 C7.03059829,21.372534 7.63230769,20.5893707 7.63230769,19.0238946 C7.63230769,18.1293367 7.37333333,17.2909014 6.85367521,16.5077381 C6.33487179,15.7245748 5.71435897,15.0085884 4.99213675,14.3597789 L3.0417094,12.3470238 C2.2357265,11.6429422 1.56136752,10.7704932 1.01863248,9.73052721 C0.475042735,8.68971088 0.203247863,7.5375 0.203247863,6.27389456 C0.203247863,4.32916667 0.716068376,2.83767007 1.7417094,1.79770408 C2.76649573,0.757738095 4.15965812,0.238180272 5.91948718,0.238180272 C7.67931624,0.238180272 9.03059829,0.757738095 9.97418803,1.79685374 C10.9177778,2.83596939 11.3895726,4.32746599 11.3895726,6.27134354 L11.3895726,7.04260204 L7.80068376,7.04260204 L7.80068376,6.0375 C7.80068376,4.46181973 7.16649573,3.67355442 5.89726496,3.67355442 C4.62803419,3.67355442 3.99384615,4.46267007 3.99384615,6.03920068 C3.99384615,6.69906463 4.13230769,7.32831633 4.40837607,7.92695578 C4.68444444,8.52559524 5.0425641,9.06471088 5.48273504,9.5460034 C5.92290598,10.0264456 6.40837607,10.5017857 6.9382906,10.9711735 C7.46820513,11.4414116 7.99213675,11.9337585 8.50837607,12.4482143 C9.02461538,12.9626701 9.50239316,13.5128401 9.9408547,14.1004252 C10.3784615,14.6871599 10.7348718,15.3810374 11.0100855,16.1803571 C11.2852991,16.9805272 11.422906,17.8495748 11.422906,18.7892007 C11.422906,20.7288265 10.94,22.2169218 9.97418803,23.2534864 C9.00837607,24.290051 7.64512821,24.8087585 5.88444444,24.8087585 C4.12376068,24.8087585 2.71948718,24.2892007 1.67247863,23.250085 C0.625470085,22.2109694 0.102393162,20.7186224 0.102393162,18.7747449" id="Fill-1"></path>
                <path d="M17.3695726,12.0875 L19.1721368,12.0875 C19.7892308,12.0875 20.2524786,11.9140306 20.5618803,11.5679422 C20.8704274,11.2218537 21.0251282,10.635119 21.0251282,9.8077381 L21.0251282,6.20484694 C21.0251282,5.37746599 20.8704274,4.79413265 20.5618803,4.45314626 C20.2524786,4.11215986 19.7892308,3.94209184 19.1721368,3.94209184 L17.3695726,3.94209184 L17.3695726,12.0875 Z M13.5789744,24.539881 L13.5789744,0.506717687 L19.1635897,0.506717687 C22.9311111,0.506717687 24.8157265,2.4922619 24.8157265,6.4625 L24.8157265,9.58409864 C24.8157265,13.5432823 22.9328205,15.5237245 19.1678632,15.5237245 L17.3695726,15.5237245 L17.3695726,24.539881 L13.5789744,24.539881 Z" id="Fill-4"></path>
                <path d="M30.3747009,11.3333333 L31.8567521,11.3333333 C32.6208547,11.3333333 33.1909402,11.1377551 33.5670085,10.7465986 C33.9430769,10.3554422 34.1311111,9.70238095 34.1311111,8.78571429 L34.1311111,6.42261905 C34.1422222,4.76955782 33.5020513,3.94217687 32.2105983,3.94217687 L30.3747009,3.94217687 L30.3747009,11.3333333 Z M26.5841026,24.539966 L26.5841026,0.505952381 L32.3037607,0.505952381 C34.254188,0.505952381 35.6789744,0.959183673 36.5755556,1.86479592 C37.4729915,2.77040816 37.9217094,4.16241497 37.9217094,6.04081633 L37.9217094,7.93537415 C37.9217094,10.4064626 37.094359,12.0331633 35.4396581,12.8154762 C37.1165812,13.5204082 37.9550427,15.2253401 37.9550427,17.9311224 L37.9550427,21.6292517 L37.9550427,21.7797619 C37.9550427,23.0068027 38.0900855,23.9268707 38.3593162,24.539966 L34.5165812,24.539966 C34.2935043,23.8596939 34.1764103,22.8784014 34.1652991,21.5952381 L34.1652991,17.8307823 C34.1652991,16.7380952 33.9712821,15.9540816 33.5841026,15.4804422 C33.1960684,15.0059524 32.5644444,14.7695578 31.6883761,14.7695578 L30.3747009,14.7695578 L30.3747009,24.539966 L26.5841026,24.539966 Z" id="Fill-6"></path>
                <polygon id="Fill-8" points="40.4487179 24.5401361 44.2393162 24.5401361 44.2393162 0.506122449 40.4487179 0.506122449"></polygon>
                <path d="M50.7920513,21.1044218 L52.9655556,21.1044218 C53.6279487,21.1044218 54.1219658,20.9284014 54.4476068,20.5763605 C54.7732479,20.2243197 54.9364957,19.6129252 54.9364957,18.7413265 L54.9364957,16.6460884 C54.9364957,15.5508503 54.7484615,14.7914966 54.3715385,14.3671769 C53.9954701,13.9420068 53.3698291,13.7302721 52.4937607,13.7302721 L50.7920513,13.7302721 L50.7920513,21.1044218 Z M50.7920513,10.2940476 L52.2809402,10.2940476 C53.0476068,10.2940476 53.6202564,10.0984694 53.9980342,9.70731293 C54.3766667,9.31615646 54.5655556,8.66819728 54.5655556,7.76343537 L54.5655556,6.42244898 C54.5766667,4.76938776 53.9339316,3.9420068 52.6364957,3.9420068 L50.7920513,3.9420068 L50.7920513,10.2940476 Z M47.001453,24.5406463 L47.001453,0.506632653 L52.7296581,0.506632653 C54.6835043,0.506632653 56.11,0.959013605 57.0082906,1.86377551 C57.9065812,2.76853741 58.3561538,4.15969388 58.3561538,6.0372449 L58.3561538,6.89183673 C58.3561538,9.36122449 57.5364957,10.9760204 55.8963248,11.7353741 C57.7835043,12.472619 58.7262393,14.1886054 58.7262393,16.8807823 L58.7262393,18.8416667 C58.7262393,20.6962585 58.2382051,22.1103741 57.2612821,23.0823129 C56.2835043,24.0542517 54.8518803,24.5406463 52.9655556,24.5406463 L47.001453,24.5406463 Z" id="Fill-10"></path>
                <polygon id="Fill-11" points="61.0007692 24.5402211 61.0007692 0.506207483 71.344359 0.506207483 71.344359 3.94243197 64.7913675 3.94243197 64.7913675 10.6295068 69.9964957 10.6295068 69.9964957 14.064881 64.7913675 14.064881 64.7913675 21.1039966 71.344359 21.1039966 71.344359 24.5402211"></polygon>
                <polygon id="Fill-12" points="0 29.4338435 71.3974359 29.4338435 71.3974359 26.0971088 0 26.0971088"></polygon>
            </g>
        </g>
    </g>
</svg>